# Alias OBJ Model File
# Exported from SketchUp, (c) 2000-2012 Trimble Navigation Limited
# File units = meters

mtllib 3D_MONEV_A.mtl

g Mesh1 G_31_044726828927523 Model

usemtl Residential
v -54.0945 -252.093 0
vt 1973.48 -9962.73
vn 0 0 -1
v -10.5073 -223.31 0
vt 257.446 -8829.55
v -6.52389 -229.043 0
vt 100.618 -9055.23
v -7.22828 -229.553 0
vt 128.35 -9075.31
v -6.75464 -230.415 0
vt 109.702 -9109.26
v -14.4786 -235.431 0
vt 413.797 -9306.73
v -12.0011 -239.341 0
vt 316.257 -9460.69
v -25.8703 -248.62 0
vt 862.288 -9825.99
v -23.6843 -252.287 0
vt 776.224 -9970.38
v -45.0103 -266.23 0
vt 1615.83 -10519.3
f 1//1 2//1 3//1 4//1 5//1 6//1 7//1 8//1 9//1 10//1 

vt 5080.32 0
vn -0.551046 0.834475 0
vt 7136.74 0
v -54.0945 -252.093 30.9972
vt 7136.74 1220.36
v -10.5073 -223.31 30.9972
vt 5080.32 1220.36
f 2/11/2 1/12/2 11/13/2 12/14/2 

vt 7314.49 0
vn -0.841272 -0.540611 0
vt 7976.05 0
v -45.0103 -266.23 30.9972
vt 7976.05 1220.36
vt 7314.49 1220.36
f 1//3 10//3 13//3 11//3 

vt -7108.59 0
vn 0.547198 -0.837003 0
vt -6105.48 0
v -23.6843 -252.287 30.9972
vt -6105.48 1220.36
vt -7108.59 1220.36
f 10//4 9//4 14//4 13//4 

vt -8167.1 0
vn 0.858995 0.511984 0
vt -7999 0
v -25.8703 -248.62 30.9972
vt -7999 1220.36
vt -8167.1 1220.36
f 9//5 8//5 15//5 14//5 

vt -6180.37 0
vn 0.556043 -0.831153 0
vt -5523.41 0
v -12.0011 -239.341 30.9972
vt -5523.41 1220.36
vt -6180.37 1220.36
f 8//6 7//6 16//6 15//6 

vt -7822.57 0
vn 0.84474 0.535177 0
vt -7640.31 0
v -14.4786 -235.431 30.9972
vt -7640.31 1220.36
vt -7822.57 1220.36
f 7//7 6//7 17//7 16//7 

vt -5415.65 0
vn 0.544617 -0.838685 0
vt -5053.07 0
v -6.75464 -230.415 30.9972
vt -5053.07 1220.36
vt -5415.65 1220.36
f 6/35/8 5/36/8 18/37/8 17/38/8 

vt -7931.24 0
vn 0.876476 0.481445 0
vt -7892.51 0
v -7.22828 -229.553 30.9972
vt -7892.51 1220.36
vt -7931.24 1220.36
f 5/39/9 4/40/9 19/41/9 18/42/9 

vt -5426.72 0
vn 0.58651 -0.809942 0
vt -5392.48 0
v -6.52389 -229.043 30.9972
vt -5392.48 1220.36
vt -5426.72 1220.36
f 4/43/10 3/44/10 20/45/10 19/46/10 

vt -7378.64 0
vn 0.821189 0.570657 0
vt -7103.82 0
vt -7103.82 1220.36
vt -7378.64 1220.36
f 3/47/11 2/48/11 12/49/11 20/50/11 

vt -257.446 -8829.55
vn 0 0 1
vt -1973.48 -9962.73
vt -1615.83 -10519.3
vt -776.224 -9970.38
vt -862.288 -9825.99
vt -316.257 -9460.69
vt -413.797 -9306.73
vt -109.702 -9109.26
vt -128.35 -9075.31
vt -100.618 -9055.23
f 12/51/12 11/52/12 13/53/12 14/54/12 15/55/12 16/56/12 17/57/12 18/58/12 19/59/12 20/60/12 

g Mesh2 G_28_07592050300751 Model

v 78.7743 -227.333 0
vt -3257.58 -8987.93
v 77.45 -228.311 0
vt -3205.44 -9026.43
v 70.7707 -218.216 0
vt -2942.48 -8628.97
v 68.5361 -219.661 0
vt -2854.5 -8685.87
v 67.0388 -217.209 0
vt -2795.55 -8589.33
v 67.671 -215.578 0
vt -2820.44 -8525.11
v 69.7854 -214.253 0
vt -2903.68 -8472.98
v 70.9432 -216.354 0
vt -2949.27 -8555.67
v 70.4855 -217.673 0
vt -2931.25 -8607.62
v 71.694 -216.845 0
vt -2978.83 -8574.99
f 21/61/1 22/62/1 23/63/1 24/64/1 25/65/1 26/66/1 27/67/1 28/68/1 29/69/1 30/70/1 

vt -2783.94 0
vn 0.59408 -0.804406 0
vt -2719.13 0
v 78.7743 -227.333 20.796
vt -2719.13 818.742
v 77.45 -228.311 20.796
vt -2783.94 818.742
f 22/71/13 21/72/13 31/73/13 32/74/13 

vt -9272.09 0
vn 0.828832 0.559498 0
vt -8773.87 0
v 71.694 -216.845 20.796
vt -8773.87 818.742
vt -9272.09 818.742
f 21/75/14 30/76/14 33/77/14 31/78/14 

vt 2392.85 0
vn -0.565544 0.824718 0
vt 2450.54 0
v 70.4855 -217.673 20.796
vt 2450.54 818.742
vt 2392.85 818.742
f 30/79/15 29/80/15 34/81/15 33/82/15 

vt -7171.32 0
vn 0.944757 -0.327773 0
vt -7116.34 0
v 70.9432 -216.354 20.796
vt -7116.34 818.742
vt -7171.32 818.742
f 29/83/16 28/84/16 35/85/16 34/86/16 

vt -8916.41 0
vn 0.875741 0.482781 0
vt -8821.98 0
v 69.7854 -214.253 20.796
vt -8821.98 818.742
vt -8916.41 818.742
f 28/87/17 27/88/17 36/89/17 35/90/17 

vt 2036 0
vn -0.530743 0.847533 0
vt 2134.22 0
v 67.671 -215.578 20.796
vt 2134.22 818.742
vt 2036 818.742
f 27/91/18 26/92/18 37/93/18 36/94/18 

vt 6929.59 0
vn -0.93241 0.361401 0
vt 6998.47 0
v 67.0388 -217.209 20.796
vt 6998.47 818.742
vt 6929.59 818.742
f 26/95/19 25/96/19 38/97/19 37/98/19 

vt 8787.6 0
vn -0.853467 -0.521147 0
vt 8900.72 0
v 68.5361 -219.661 20.796
vt 8900.72 818.742
vt 8787.6 818.742
f 25/99/20 24/100/20 39/101/20 38/102/20 

vt -2320.06 0
vn 0.543062 -0.839693 0
vt -2215.29 0
v 70.7707 -218.216 20.796
vt -2215.29 818.742
vt -2320.06 818.742
f 24/103/21 23/104/21 40/105/21 39/106/21 

vt 8820.08 0
vn -0.833991 -0.551778 0
vt 9296.65 0
vt 9296.65 818.742
vt 8820.08 818.742
f 23/107/22 22/108/22 32/109/22 40/110/22 

vt 3205.44 -9026.43
vt 3257.58 -8987.93
vt 2978.83 -8574.99
vt 2931.25 -8607.62
vt 2949.27 -8555.67
vt 2903.68 -8472.98
vt 2820.44 -8525.11
vt 2795.55 -8589.33
vt 2854.5 -8685.87
vt 2942.48 -8628.97
f 32/111/12 31/112/12 33/113/12 34/114/12 35/115/12 36/116/12 37/117/12 38/118/12 39/119/12 40/120/12 

g Mesh3 G_13_666510627946966 Model

v 157.632 -281.417 0
vt -6362.22 -11117.2
v 161.24 -286.775 0
vt -6504.28 -11328.2
v 154.993 -290.976 0
vt -6258.33 -11493.6
v 151.493 -285.698 0
vt -6120.51 -11285.8
f 41/121/1 42/122/1 43/123/1 44/124/1 

vt -13029.4 0
vn 0.829476 0.558542 0
vt -12775 0
v 157.632 -281.417 20.0203
vt -12775 788.202
v 161.24 -286.775 20.0203
vt -13029.4 788.202
f 42/125/23 41/126/23 45/127/23 46/128/23 

vt 1140.61 0
vn -0.572013 0.820245 0
vt 1435.29 0
v 151.493 -285.698 20.0203
vt 1435.29 788.202
vt 1140.61 788.202
f 41/129/24 44/130/24 47/131/24 45/132/24 

vt 12788.1 0
vn -0.833356 -0.552736 0
vt 13037.4 0
v 154.993 -290.976 20.0203
vt 13037.4 788.202
vt 12788.1 788.202
f 44/133/25 43/134/25 48/135/25 47/136/25 

vt -1219.95 0
vn 0.557998 -0.829843 0
vt -923.567 0
vt -923.567 788.202
vt -1219.95 788.202
f 43/137/26 42/138/26 46/139/26 48/140/26 

vt 6504.28 -11328.2
vt 6362.22 -11117.2
vt 6120.51 -11285.8
vt 6258.33 -11493.6
f 46/141/12 45/142/12 47/143/12 48/144/12 
